<svg xmlns="http://www.w3.org/2000/svg" width="20" height="20" fill="none" viewBox="0 0 20 20">
  <path fill="white" fill-rule="evenodd" d="M9.657 1.083a.75.75 0 0 1 .687 0l8.25 4.25A.75.75 0 0 1 19 6v8a.75.75 0 0 1-.407.667l-8.25 4.25a.75.75 0 0 1-.686 0l-8.25-4.25A.75.75 0 0 1 1 14V6a.75.75 0 0 1 .407-.667l8.25-4.25ZM2.5 7.197v6.346l6.75 3.477v-6.55L2.5 7.197Zm8.25 3.273v6.55l6.75-3.477V7.197l-6.75 3.273Zm5.823-4.49-2.506 1.215L7.47 3.897 10 2.594l6.573 3.386ZM5.818 4.748 3.429 5.98 10 9.166l2.364-1.146-6.546-3.272Z" clip-rule="evenodd"/>
</svg>
