<svg xmlns="http://www.w3.org/2000/svg" width="20" height="20" fill="none" viewBox="0 0 20 20">
  <path fill="white" fill-rule="evenodd" d="M4.25 3a1 1 0 0 1 1-1h9.5a1 1 0 0 1 1 1v2h2c.69 0 1.25.56 1.25 1.25v7.5c0 .69-.56 1.25-1.25 1.25h-2v2a1 1 0 0 1-1 1h-9.5a1 1 0 0 1-1-1v-2h-2C1.56 15 1 14.44 1 13.75v-7.5C1 5.56 1.56 5 2.25 5h2V3Zm0 10.5v-2a1 1 0 0 1 1-1h9.5a1 1 0 0 1 1 1v2h1.75v-7h-15v7h1.75Zm1.5-10V5h8.5V3.5h-8.5ZM14 8.75a.75.75 0 0 1 .75-.75h.5a.75.75 0 0 1 0 1.5h-.5a.75.75 0 0 1-.75-.75ZM5.75 12v4.5h8.5V12h-8.5ZM7 14.25a.75.75 0 0 1 .75-.75h4.5a.75.75 0 0 1 0 1.5h-4.5a.75.75 0 0 1-.75-.75Z" clip-rule="evenodd"/>
</svg>
